<?xml version="1.0" encoding="UTF-8"?>
<svg xmlns="http://www.w3.org/2000/svg" xmlns:xlink="http://www.w3.org/1999/xlink" width="80px" height="29px" viewBox="0 0 79 29" version="1.1">
<defs>
<clipPath id="clip1">
  <path d="M 51 1 L 68 1 L 68 18 L 51 18 Z M 51 1 "/>
</clipPath>
<clipPath id="clip2">
  <path d="M 66.304688 4.234375 C 63.929688 1.007812 58.898438 0.78125 55.074219 3.75 C 51.238281 6.703125 50.054688 11.71875 52.429688 14.941406 C 54.804688 18.167969 59.835938 18.394531 63.671875 15.425781 C 67.5 12.472656 68.683594 7.457031 66.304688 4.234375 Z M 66.304688 4.234375 "/>
</clipPath>
<clipPath id="clip3">
  <path d="M 42.65625 7.992188 L 62.460938 -7.300781 L 76.160156 11.328125 L 56.359375 26.609375 Z M 42.65625 7.992188 "/>
</clipPath>
<clipPath id="clip4">
  <path d="M 66.304688 4.234375 C 63.929688 1.007812 58.898438 0.78125 55.074219 3.75 C 51.238281 6.703125 50.054688 11.71875 52.429688 14.941406 C 54.804688 18.167969 59.835938 18.394531 63.671875 15.425781 C 67.5 12.472656 68.683594 7.457031 66.304688 4.234375 Z M 66.304688 4.234375 "/>
</clipPath>
<clipPath id="clip5">
  <path d="M 48.171875 9.226562 L 62.039062 -1.472656 L 70.648438 10.226562 L 56.78125 20.925781 Z M 48.171875 9.226562 "/>
</clipPath>
<clipPath id="clip6">
  <path d="M 51 1 L 68 1 L 68 18 L 51 18 Z M 51 1 "/>
</clipPath>
<clipPath id="clip7">
  <path d="M 66.304688 4.234375 C 63.929688 1.007812 58.898438 0.78125 55.074219 3.75 C 51.238281 6.703125 50.054688 11.71875 52.429688 14.941406 C 54.804688 18.167969 59.835938 18.394531 63.671875 15.425781 C 67.5 12.472656 68.683594 7.457031 66.304688 4.234375 Z M 66.304688 4.234375 "/>
</clipPath>
<clipPath id="clip8">
  <path d="M 42.65625 7.992188 L 62.460938 -7.300781 L 76.160156 11.328125 L 56.359375 26.609375 Z M 42.65625 7.992188 "/>
</clipPath>
<clipPath id="clip9">
  <path d="M 66.304688 4.234375 C 63.929688 1.007812 58.898438 0.78125 55.074219 3.75 C 51.238281 6.703125 50.054688 11.71875 52.429688 14.941406 C 54.804688 18.167969 59.835938 18.394531 63.671875 15.425781 C 67.5 12.472656 68.683594 7.457031 66.304688 4.234375 Z M 66.304688 4.234375 "/>
</clipPath>
<clipPath id="clip10">
  <path d="M 50.148438 16.261719 L 54.941406 -0.835938 L 68.683594 3.203125 L 63.898438 20.296875 Z M 50.148438 16.261719 "/>
</clipPath>
<clipPath id="clip11">
  <path d="M 51 1 L 68 1 L 68 18 L 51 18 Z M 51 1 "/>
</clipPath>
<clipPath id="clip12">
  <path d="M 66.304688 4.234375 C 63.929688 1.007812 58.898438 0.78125 55.074219 3.75 C 51.238281 6.703125 50.054688 11.71875 52.429688 14.941406 C 54.804688 18.167969 59.835938 18.394531 63.671875 15.425781 C 67.5 12.472656 68.683594 7.457031 66.304688 4.234375 Z M 66.304688 4.234375 "/>
</clipPath>
<clipPath id="clip13">
  <path d="M 42.65625 7.992188 L 62.460938 -7.300781 L 76.160156 11.328125 L 56.359375 26.609375 Z M 42.65625 7.992188 "/>
</clipPath>
<clipPath id="clip14">
  <path d="M 66.304688 4.234375 C 63.929688 1.007812 58.898438 0.78125 55.074219 3.75 C 51.238281 6.703125 50.054688 11.71875 52.429688 14.941406 C 54.804688 18.167969 59.835938 18.394531 63.671875 15.425781 C 67.5 12.472656 68.683594 7.457031 66.304688 4.234375 Z M 66.304688 4.234375 "/>
</clipPath>
<clipPath id="clip15">
  <path d="M 48.171875 9.226562 L 62.039062 -1.472656 L 70.648438 10.226562 L 56.78125 20.925781 Z M 48.171875 9.226562 "/>
</clipPath>
<clipPath id="clip16">
  <path d="M 51 1 L 68 1 L 68 18 L 51 18 Z M 51 1 "/>
</clipPath>
<clipPath id="clip17">
  <path d="M 66.304688 4.234375 C 63.929688 1.007812 58.898438 0.78125 55.074219 3.75 C 51.238281 6.703125 50.054688 11.71875 52.429688 14.941406 C 54.804688 18.167969 59.835938 18.394531 63.671875 15.425781 C 67.5 12.472656 68.683594 7.457031 66.304688 4.234375 Z M 66.304688 4.234375 "/>
</clipPath>
<clipPath id="clip18">
  <path d="M 42.65625 7.992188 L 62.460938 -7.300781 L 76.160156 11.328125 L 56.359375 26.609375 Z M 42.65625 7.992188 "/>
</clipPath>
<clipPath id="clip19">
  <path d="M 66.304688 4.234375 C 63.929688 1.007812 58.898438 0.78125 55.074219 3.75 C 51.238281 6.703125 50.054688 11.71875 52.429688 14.941406 C 54.804688 18.167969 59.835938 18.394531 63.671875 15.425781 C 67.5 12.472656 68.683594 7.457031 66.304688 4.234375 Z M 66.304688 4.234375 "/>
</clipPath>
<clipPath id="clip20">
  <path d="M 50.148438 16.261719 L 54.941406 -0.835938 L 68.683594 3.203125 L 63.898438 20.296875 Z M 50.148438 16.261719 "/>
</clipPath>
<clipPath id="clip21">
  <path d="M 51 1 L 68 1 L 68 18 L 51 18 Z M 51 1 "/>
</clipPath>
<clipPath id="clip22">
  <path d="M 66.304688 4.234375 C 63.929688 1.007812 58.898438 0.78125 55.074219 3.75 C 51.238281 6.703125 50.054688 11.71875 52.429688 14.941406 C 54.804688 18.167969 59.835938 18.394531 63.671875 15.425781 C 67.5 12.472656 68.683594 7.457031 66.304688 4.234375 Z M 66.304688 4.234375 "/>
</clipPath>
<clipPath id="clip23">
  <path d="M 42.65625 7.992188 L 62.460938 -7.300781 L 76.160156 11.328125 L 56.359375 26.609375 Z M 42.65625 7.992188 "/>
</clipPath>
<clipPath id="clip24">
  <path d="M 66.304688 4.234375 C 63.929688 1.007812 58.898438 0.78125 55.074219 3.75 C 51.238281 6.703125 50.054688 11.71875 52.429688 14.941406 C 54.804688 18.167969 59.835938 18.394531 63.671875 15.425781 C 67.5 12.472656 68.683594 7.457031 66.304688 4.234375 Z M 66.304688 4.234375 "/>
</clipPath>
<clipPath id="clip25">
  <path d="M 51 1 L 68 1 L 68 18 L 51 18 Z M 51 1 "/>
</clipPath>
<clipPath id="clip26">
  <path d="M 66.304688 4.234375 C 63.929688 1.007812 58.898438 0.78125 55.074219 3.75 C 51.238281 6.703125 50.054688 11.71875 52.429688 14.941406 C 54.804688 18.167969 59.835938 18.394531 63.671875 15.425781 C 67.5 12.472656 68.683594 7.457031 66.304688 4.234375 Z M 66.304688 4.234375 "/>
</clipPath>
<clipPath id="clip27">
  <path d="M 42.65625 7.992188 L 62.460938 -7.300781 L 76.160156 11.328125 L 56.359375 26.609375 Z M 42.65625 7.992188 "/>
</clipPath>
<clipPath id="clip28">
  <path d="M 55 5 L 64.515625 5 L 64.515625 15 L 55 15 Z M 55 5 "/>
</clipPath>
<clipPath id="clip29">
  <path d="M 66.304688 4.234375 C 63.929688 1.007812 58.898438 0.78125 55.074219 3.75 C 51.238281 6.703125 50.054688 11.71875 52.429688 14.941406 C 54.804688 18.167969 59.835938 18.394531 63.671875 15.425781 C 67.5 12.472656 68.683594 7.457031 66.304688 4.234375 Z M 66.304688 4.234375 "/>
</clipPath>
<clipPath id="clip30">
  <path d="M 42.65625 7.992188 L 62.460938 -7.300781 L 76.160156 11.328125 L 56.359375 26.609375 Z M 42.65625 7.992188 "/>
</clipPath>
</defs>
<g id="surface1">
<path style=" stroke:none;fill-rule:nonzero;fill:rgb(0%,0%,0%);fill-opacity:1;" d="M 40.746094 9.609375 L 44.367188 9.359375 C 44.449219 9.96875 44.601562 10.421875 44.847656 10.75 C 45.25 11.257812 45.804688 11.511719 46.535156 11.511719 C 47.070312 11.511719 47.503906 11.390625 47.789062 11.113281 C 48.058594 10.90625 48.234375 10.566406 48.234375 10.214844 C 48.234375 9.875 48.078125 9.546875 47.8125 9.339844 C 47.542969 9.082031 46.894531 8.824219 45.867188 8.597656 C 44.199219 8.21875 42.996094 7.714844 42.296875 7.066406 C 41.597656 6.457031 41.195312 5.5625 41.226562 4.625 C 41.226562 3.964844 41.414062 3.316406 41.773438 2.78125 C 42.183594 2.171875 42.75 1.699219 43.429688 1.429688 C 44.160156 1.101562 45.179688 0.9375 46.464844 0.9375 C 48.039062 0.9375 49.230469 1.226562 50.0625 1.832031 C 50.886719 2.429688 51.390625 3.386719 51.535156 4.707031 L 47.957031 4.914062 C 47.851562 4.347656 47.667969 3.945312 47.347656 3.675781 C 47.03125 3.410156 46.617188 3.273438 46.074219 3.273438 C 45.640625 3.273438 45.300781 3.378906 45.085938 3.5625 C 44.878906 3.726562 44.734375 3.984375 44.757812 4.261719 C 44.757812 4.480469 44.859375 4.675781 45.035156 4.800781 C 45.210938 4.972656 45.640625 5.128906 46.308594 5.273438 C 47.976562 5.632812 49.167969 6.003906 49.898438 6.386719 C 50.628906 6.765625 51.15625 7.230469 51.472656 7.785156 C 51.800781 8.351562 51.96875 9 51.957031 9.660156 C 51.957031 10.453125 51.730469 11.246094 51.289062 11.90625 C 50.835938 12.605469 50.199219 13.140625 49.457031 13.460938 C 48.664062 13.808594 47.679688 13.996094 46.496094 13.996094 C 44.394531 13.996094 42.945312 13.59375 42.132812 12.757812 C 41.320312 11.925781 40.835938 10.875 40.746094 9.609375 Z M 2.253906 13.789062 L 2.253906 1.152344 L 8.609375 1.152344 C 9.78125 1.152344 10.699219 1.257812 11.316406 1.472656 C 11.921875 1.667969 12.457031 2.082031 12.816406 2.625 C 13.21875 3.234375 13.414062 3.945312 13.394531 4.675781 C 13.433594 5.921875 12.816406 7.105469 11.757812 7.722656 C 11.347656 7.972656 10.882812 8.136719 10.421875 8.21875 C 10.757812 8.320312 11.109375 8.484375 11.40625 8.691406 C 11.644531 8.886719 11.839844 9.113281 12.015625 9.351562 C 12.21875 9.585938 12.40625 9.855469 12.558594 10.144531 L 14.402344 13.800781 L 10.070312 13.800781 L 8.035156 9.917969 C 7.765625 9.421875 7.550781 9.09375 7.34375 8.9375 C 7.066406 8.742188 6.738281 8.640625 6.410156 8.640625 L 6.078125 8.640625 L 6.078125 13.769531 L 2.253906 13.769531 Z M 6.078125 6.273438 L 7.683594 6.273438 C 8.035156 6.242188 8.363281 6.1875 8.691406 6.105469 C 8.9375 6.054688 9.164062 5.921875 9.320312 5.707031 C 9.691406 5.199219 9.628906 4.480469 9.175781 4.035156 C 8.929688 3.832031 8.445312 3.71875 7.757812 3.71875 L 6.078125 3.71875 Z M 1.390625 24.601562 L 5.007812 24.367188 C 5.09375 24.972656 5.246094 25.425781 5.492188 25.757812 C 5.882812 26.261719 6.449219 26.527344 7.179688 26.527344 C 7.714844 26.527344 8.148438 26.40625 8.433594 26.136719 C 8.710938 25.910156 8.878906 25.582031 8.878906 25.230469 C 8.878906 24.890625 8.722656 24.5625 8.457031 24.355469 C 8.1875 24.097656 7.539062 23.839844 6.5 23.613281 C 4.835938 23.234375 3.632812 22.726562 2.929688 22.078125 C 2.230469 21.472656 1.832031 20.574219 1.851562 19.640625 C 1.851562 18.980469 2.046875 18.332031 2.40625 17.796875 C 2.820312 17.1875 3.382812 16.714844 4.0625 16.445312 C 4.792969 16.117188 5.8125 15.953125 7.097656 15.953125 C 8.671875 15.953125 9.863281 16.242188 10.699219 16.847656 C 11.519531 17.457031 12.003906 18.402344 12.160156 19.722656 L 8.570312 19.925781 C 8.476562 19.371094 8.28125 18.960938 7.960938 18.691406 C 7.664062 18.421875 7.230469 18.289062 6.695312 18.308594 C 6.253906 18.308594 5.925781 18.402344 5.699219 18.597656 C 5.484375 18.773438 5.359375 19.03125 5.371094 19.308594 C 5.371094 19.527344 5.484375 19.722656 5.648438 19.84375 C 5.820312 20.019531 6.253906 20.175781 6.933594 20.308594 C 8.597656 20.679688 9.78125 21.050781 10.511719 21.429688 C 11.242188 21.8125 11.769531 22.273438 12.085938 22.832031 C 12.414062 23.386719 12.582031 24.046875 12.582031 24.695312 C 12.582031 25.476562 12.34375 26.261719 11.921875 26.917969 C 11.46875 27.621094 10.832031 28.15625 10.089844 28.476562 C 9.300781 28.835938 8.3125 29.011719 7.117188 29.011719 C 5.03125 29.011719 3.578125 28.609375 2.765625 27.773438 C 1.953125 26.917969 1.492188 25.878906 1.390625 24.601562 Z M 1.390625 24.601562 "/>
<path style=" stroke:none;fill-rule:nonzero;fill:rgb(0%,0%,0%);fill-opacity:1;" d="M 19.730469 23.613281 L 23.0625 24.652344 C 22.886719 25.507812 22.507812 26.332031 22.003906 27.054688 C 21.53125 27.683594 20.914062 28.175781 20.210938 28.503906 C 19.492188 28.835938 18.578125 29 17.476562 29 C 16.140625 29 15.039062 28.804688 14.195312 28.402344 C 13.339844 28.011719 12.609375 27.300781 11.992188 26.300781 C 11.367188 25.304688 11.066406 24.015625 11.066406 22.449219 C 11.066406 20.359375 11.601562 18.742188 12.695312 17.628906 C 13.785156 16.507812 15.316406 15.953125 17.300781 15.953125 C 18.855469 15.953125 20.070312 16.269531 20.964844 16.910156 C 21.847656 17.558594 22.507812 18.546875 22.949219 19.875 L 19.585938 20.636719 C 19.503906 20.339844 19.378906 20.039062 19.214844 19.792969 C 19.007812 19.496094 18.742188 19.269531 18.433594 19.09375 C 18.113281 18.929688 17.753906 18.855469 17.394531 18.855469 C 16.53125 18.855469 15.863281 19.207031 15.410156 19.925781 C 15.070312 20.453125 14.882812 21.285156 14.882812 22.417969 C 14.882812 23.820312 15.089844 24.777344 15.5 25.304688 C 15.921875 25.816406 16.5 26.074219 17.261719 26.074219 C 17.992188 26.074219 18.535156 25.859375 18.917969 25.457031 C 19.289062 25.015625 19.566406 24.40625 19.730469 23.613281 Z M 27.515625 16.15625 L 31.320312 16.15625 L 31.320312 20.574219 L 35.488281 20.574219 L 35.488281 16.15625 L 39.324219 16.15625 L 39.324219 28.785156 L 35.488281 28.785156 L 35.488281 23.675781 L 31.320312 23.675781 L 31.320312 28.785156 L 27.515625 28.785156 Z M 27.515625 16.15625 "/>
<path style=" stroke:none;fill-rule:nonzero;fill:rgb(0%,0%,0%);fill-opacity:1;" d="M 38.800781 22.472656 C 38.800781 20.410156 39.367188 18.804688 40.476562 17.660156 C 41.597656 16.507812 43.171875 15.929688 45.167969 15.929688 C 47.226562 15.929688 48.800781 16.496094 49.910156 17.628906 C 51.03125 18.761719 51.578125 20.339844 51.578125 22.378906 C 51.578125 23.859375 51.328125 25.054688 50.847656 26.003906 C 50.382812 26.941406 49.652344 27.703125 48.746094 28.207031 C 47.832031 28.730469 46.679688 29 45.320312 29 C 43.921875 29 42.78125 28.773438 41.875 28.320312 C 40.929688 27.847656 40.160156 27.09375 39.65625 26.179688 C 39.089844 25.191406 38.800781 23.953125 38.800781 22.472656 Z M 42.605469 22.492188 C 42.605469 23.757812 42.832031 24.675781 43.296875 25.242188 C 43.75 25.796875 44.386719 26.074219 45.179688 26.074219 C 45.992188 26.074219 46.628906 25.808594 47.082031 25.261719 C 47.542969 24.707031 47.761719 23.726562 47.761719 22.316406 C 47.761719 21.132812 47.523438 20.257812 47.0625 19.722656 C 46.585938 19.164062 45.949219 18.898438 45.15625 18.898438 C 44.449219 18.875 43.777344 19.1875 43.304688 19.730469 C 42.832031 20.289062 42.605469 21.203125 42.605469 22.492188 Z M 55.484375 22.472656 C 55.484375 20.410156 56.050781 18.804688 57.160156 17.660156 C 58.28125 16.507812 59.855469 15.929688 61.851562 15.929688 C 63.910156 15.929688 65.492188 16.496094 66.59375 17.628906 C 67.695312 18.761719 68.261719 20.339844 68.261719 22.378906 C 68.261719 23.859375 68.015625 25.054688 67.53125 26.003906 C 67.066406 26.941406 66.335938 27.703125 65.441406 28.207031 C 64.515625 28.730469 63.363281 29 62.007812 29 C 60.609375 29 59.464844 28.773438 58.5625 28.320312 C 57.613281 27.847656 56.84375 27.09375 56.339844 26.179688 C 55.773438 25.191406 55.484375 23.953125 55.484375 22.472656 Z M 59.292969 22.492188 C 59.292969 23.757812 59.515625 24.675781 59.980469 25.242188 C 60.433594 25.796875 61.070312 26.074219 61.863281 26.074219 C 62.675781 26.074219 63.3125 25.808594 63.765625 25.261719 C 64.230469 24.707031 64.445312 23.726562 64.445312 22.316406 C 64.445312 21.132812 64.207031 20.257812 63.746094 19.722656 C 63.273438 19.164062 62.632812 18.898438 61.84375 18.898438 C 61.132812 18.875 60.441406 19.1875 59.992188 19.730469 C 59.515625 20.289062 59.292969 21.203125 59.292969 22.492188 Z M 59.292969 22.492188 "/>
<path style=" stroke:none;fill-rule:nonzero;fill:rgb(0%,0%,0%);fill-opacity:1;" d="M 67.859375 16.15625 L 71.664062 16.15625 L 71.664062 25.683594 L 77.609375 25.683594 L 77.609375 28.785156 L 67.847656 28.785156 L 67.847656 16.15625 Z M 67.859375 16.15625 "/>
<path style=" stroke:none;fill-rule:nonzero;fill:rgb(100%,100%,100%);fill-opacity:1;" d="M 66.304688 4.234375 C 63.929688 1.007812 58.898438 0.78125 55.074219 3.75 C 51.238281 6.703125 50.054688 11.71875 52.429688 14.941406 C 54.804688 18.167969 59.835938 18.394531 63.671875 15.425781 C 67.5 12.472656 68.683594 7.457031 66.304688 4.234375 Z M 66.304688 4.234375 "/>
<g clip-path="url(#clip1)" clip-rule="nonzero">
<g clip-path="url(#clip2)" clip-rule="nonzero">
<path style=" stroke:none;fill-rule:nonzero;fill:rgb(100%,100%,100%);fill-opacity:1;" d="M 42.65625 7.992188 L 62.460938 -7.300781 L 76.160156 11.328125 L 56.359375 26.609375 Z M 42.65625 7.992188 "/>
<g clip-path="url(#clip3)" clip-rule="nonzero">
<path style=" stroke:none;fill-rule:nonzero;fill:rgb(100%,100%,100%);fill-opacity:1;" d="M 66.304688 4.234375 C 63.929688 1.007812 58.898438 0.78125 55.074219 3.75 C 51.238281 6.703125 50.054688 11.71875 52.429688 14.941406 C 54.804688 18.167969 59.835938 18.394531 63.671875 15.425781 C 67.5 12.472656 68.683594 7.457031 66.304688 4.234375 Z M 66.304688 4.234375 "/>
<g clip-path="url(#clip4)" clip-rule="nonzero">
<path style=" stroke:none;fill-rule:nonzero;fill:rgb(100%,100%,100%);fill-opacity:1;" d="M 48.171875 9.226562 L 62.039062 -1.472656 L 70.648438 10.226562 L 56.78125 20.925781 Z M 48.171875 9.226562 "/>
<g clip-path="url(#clip5)" clip-rule="nonzero">
<path style="fill-rule:nonzero;fill:rgb(100%,100%,100%);fill-opacity:1;stroke-width:4;stroke-linecap:butt;stroke-linejoin:miter;stroke:rgb(0%,0%,0%);stroke-opacity:1;stroke-miterlimit:10;" d="M 483.463515 67.897638 C 483.455316 39.289985 455.281572 16.050406 420.484751 16.144255 C 385.686632 16.098619 357.4625 39.289808 357.487341 67.875376 C 357.49554 96.483029 385.669284 119.722608 420.533975 119.679905 C 455.286848 119.691444 483.510979 96.500254 483.463515 67.897638 Z M 483.463515 67.897638 " transform="matrix(0.110125,-0.0850124,0.0829882,0.112811,7.428465,37.675187)"/>
</g>
</g>
</g>
</g>
</g>
<g clip-path="url(#clip6)" clip-rule="nonzero">
<g clip-path="url(#clip7)" clip-rule="nonzero">
<g clip-path="url(#clip8)" clip-rule="nonzero">
<g clip-path="url(#clip9)" clip-rule="nonzero">
<g clip-path="url(#clip10)" clip-rule="nonzero">
<path style="fill:none;stroke-width:4;stroke-linecap:butt;stroke-linejoin:miter;stroke:rgb(0%,0%,0%);stroke-opacity:1;stroke-miterlimit:10;" d="M 357.798771 16.964883 L 483.696584 16.994992 L 483.715628 120.714204 L 357.817815 120.684095 Z M 357.798771 16.964883 " transform="matrix(0.110127,-0.0850103,0.0829863,0.112813,7.360886,37.729303)"/>
</g>
</g>
</g>
</g>
</g>
<g clip-path="url(#clip11)" clip-rule="nonzero">
<g clip-path="url(#clip12)" clip-rule="nonzero">
<g clip-path="url(#clip13)" clip-rule="nonzero">
<g clip-path="url(#clip14)" clip-rule="nonzero">
<path style="fill:none;stroke-width:4;stroke-linecap:butt;stroke-linejoin:miter;stroke:rgb(0%,0%,0%);stroke-opacity:1;stroke-miterlimit:10;" d="M 483.463515 67.897638 C 483.455316 39.289985 455.281572 16.050406 420.484751 16.144255 C 385.686632 16.098619 357.4625 39.289808 357.487341 67.875376 C 357.49554 96.483029 385.669284 119.722608 420.533975 119.679905 C 455.286848 119.691444 483.510979 96.500254 483.463515 67.897638 Z M 483.463515 67.897638 " transform="matrix(0.110125,-0.0850124,0.0829882,0.112811,7.428465,37.675187)"/>
<path style=" stroke:none;fill-rule:nonzero;fill:rgb(100%,100%,100%);fill-opacity:1;" d="M 48.171875 9.226562 L 62.039062 -1.472656 L 70.648438 10.226562 L 56.78125 20.925781 Z M 48.171875 9.226562 "/>
<g clip-path="url(#clip15)" clip-rule="nonzero">
<path style="fill-rule:nonzero;fill:rgb(100%,100%,100%);fill-opacity:1;stroke-width:4;stroke-linecap:butt;stroke-linejoin:miter;stroke:rgb(0%,0%,0%);stroke-opacity:1;stroke-miterlimit:10;" d="M 483.463515 67.897638 C 483.455316 39.289985 455.281572 16.050406 420.484751 16.144255 C 385.686632 16.098619 357.4625 39.289808 357.487341 67.875376 C 357.49554 96.483029 385.669284 119.722608 420.533975 119.679905 C 455.286848 119.691444 483.510979 96.500254 483.463515 67.897638 Z M 483.463515 67.897638 " transform="matrix(0.110125,-0.0850124,0.0829882,0.112811,7.428465,37.675187)"/>
</g>
</g>
</g>
</g>
</g>
<g clip-path="url(#clip16)" clip-rule="nonzero">
<g clip-path="url(#clip17)" clip-rule="nonzero">
<g clip-path="url(#clip18)" clip-rule="nonzero">
<g clip-path="url(#clip19)" clip-rule="nonzero">
<g clip-path="url(#clip20)" clip-rule="nonzero">
<path style="fill:none;stroke-width:4;stroke-linecap:butt;stroke-linejoin:miter;stroke:rgb(0%,0%,0%);stroke-opacity:1;stroke-miterlimit:10;" d="M 357.798771 16.964883 L 483.696584 16.994992 L 483.715628 120.714204 L 357.817815 120.684095 Z M 357.798771 16.964883 " transform="matrix(0.110127,-0.0850103,0.0829863,0.112813,7.360886,37.729303)"/>
</g>
</g>
</g>
</g>
</g>
<g clip-path="url(#clip21)" clip-rule="nonzero">
<g clip-path="url(#clip22)" clip-rule="nonzero">
<g clip-path="url(#clip23)" clip-rule="nonzero">
<g clip-path="url(#clip24)" clip-rule="nonzero">
<path style="fill:none;stroke-width:4;stroke-linecap:butt;stroke-linejoin:miter;stroke:rgb(0%,0%,0%);stroke-opacity:1;stroke-miterlimit:10;" d="M 330.847948 -14.190673 L 510.705065 -14.216162 L 510.676532 150.896031 L 330.891967 150.872314 Z M 330.847948 -14.190673 " transform="matrix(0.110125,-0.0850124,0.0829882,0.112811,7.399208,37.719245)"/>
</g>
</g>
</g>
</g>
<g clip-path="url(#clip25)" clip-rule="nonzero">
<g clip-path="url(#clip26)" clip-rule="nonzero">
<g clip-path="url(#clip27)" clip-rule="nonzero">
<path style="fill:none;stroke-width:4;stroke-linecap:butt;stroke-linejoin:miter;stroke:rgb(0%,0%,0%);stroke-opacity:1;stroke-miterlimit:10;" d="M 483.463515 67.897638 C 483.455316 39.289985 455.281572 16.050406 420.484751 16.144255 C 385.686632 16.098619 357.4625 39.289808 357.487341 67.875376 C 357.49554 96.483029 385.669284 119.722608 420.533975 119.679905 C 455.286848 119.691444 483.510979 96.500254 483.463515 67.897638 Z M 483.463515 67.897638 " transform="matrix(0.110125,-0.0850124,0.0829882,0.112811,7.428465,37.675187)"/>
</g>
</g>
</g>
<g clip-path="url(#clip28)" clip-rule="nonzero">
<g clip-path="url(#clip29)" clip-rule="nonzero">
<g clip-path="url(#clip30)" clip-rule="nonzero">
<path style=" stroke:none;fill-rule:nonzero;fill:rgb(0%,0%,0%);fill-opacity:1;" d="M 55.496094 8.660156 L 56.875 7.671875 L 58.570312 10.144531 C 58.859375 10.535156 59.085938 10.957031 59.25 11.429688 C 59.34375 11.78125 59.3125 12.164062 59.179688 12.503906 C 59.003906 12.925781 58.703125 13.273438 58.324219 13.53125 C 57.871094 13.863281 57.480469 14.035156 57.152344 14.097656 C 56.832031 14.148438 56.503906 14.097656 56.195312 13.953125 C 55.867188 13.789062 55.578125 13.542969 55.363281 13.234375 L 56.542969 12.109375 C 56.636719 12.265625 56.761719 12.398438 56.90625 12.511719 C 56.996094 12.585938 57.109375 12.625 57.234375 12.625 C 57.328125 12.625 57.429688 12.585938 57.492188 12.53125 C 57.636719 12.441406 57.726562 12.277344 57.71875 12.109375 C 57.675781 11.863281 57.574219 11.625 57.429688 11.441406 Z M 59.628906 10.226562 L 60.886719 9.207031 C 61.03125 9.382812 61.203125 9.503906 61.398438 9.578125 C 61.675781 9.660156 61.964844 9.609375 62.203125 9.421875 C 62.367188 9.308594 62.5 9.15625 62.550781 8.960938 C 62.632812 8.703125 62.5 8.425781 62.253906 8.332031 C 62.210938 8.320312 62.171875 8.3125 62.128906 8.3125 C 61.964844 8.289062 61.675781 8.363281 61.246094 8.546875 C 60.546875 8.847656 59.992188 8.960938 59.578125 8.917969 C 59.179688 8.867188 58.808594 8.660156 58.582031 8.3125 C 58.417969 8.0625 58.335938 7.785156 58.324219 7.496094 C 58.324219 7.179688 58.40625 6.847656 58.582031 6.582031 C 58.847656 6.199219 59.167969 5.878906 59.546875 5.621094 C 60.125 5.210938 60.640625 5.015625 61.082031 5.015625 C 61.523438 5.015625 61.933594 5.230469 62.324219 5.664062 L 61.082031 6.664062 C 60.835938 6.34375 60.359375 6.273438 60.042969 6.527344 L 60 6.570312 C 59.867188 6.652344 59.773438 6.777344 59.710938 6.929688 C 59.671875 7.042969 59.703125 7.179688 59.773438 7.269531 C 59.824219 7.34375 59.910156 7.40625 60 7.40625 C 60.113281 7.414062 60.308594 7.363281 60.585938 7.230469 C 61.277344 6.929688 61.800781 6.765625 62.152344 6.714844 C 62.460938 6.652344 62.777344 6.683594 63.066406 6.808594 C 63.324219 6.921875 63.550781 7.117188 63.703125 7.363281 C 63.890625 7.640625 64.003906 7.980469 64.011719 8.332031 C 64.03125 8.703125 63.929688 9.050781 63.746094 9.359375 C 63.5 9.742188 63.179688 10.070312 62.808594 10.328125 C 62.046875 10.863281 61.421875 11.089844 60.925781 11.007812 C 60.390625 10.917969 59.949219 10.636719 59.628906 10.226562 Z M 59.628906 10.226562 "/>
</g>
</g>
</g>
</g>
</svg>
